<svg xmlns="http://www.w3.org/2000/svg" width="1240" height="1040" viewBox="0 0 1240 1040">
<rect width="1240" height="1040" fill="#f5f7fa"/>
<style>text{font-family:Arial,sans-serif;fill:#173045} .small{font-size:14px} .label{font-size:16px;font-weight:600}</style>
<text x="42" y="42" font-size="27" >Van layout concept v1 — corrected spatial interpretation</text>
<text x="42" y="72" font-size="16" >Provisional geometry • meters internally • no vehicle measurements adopted</text>
<text x="95" y="117" font-size="19" >TOP — front / cab ↑</text>
<rect x="95.00" y="145.00" width="333.00" height="731.52" fill="#fff" stroke="#526c7e" stroke-width="1.5" opacity="1"/>
<rect x="98.60" y="154.36" width="90.00" height="288.00" fill="#c5dfd1" stroke="#526c7e" stroke-width="1.5" opacity="1"/>
<rect x="98.60" y="447.76" width="90.00" height="99.00" fill="#ead3a8" stroke="#526c7e" stroke-width="1.5" opacity="1"/>
<rect x="334.40" y="447.76" width="90.00" height="99.00" fill="#ead3a8" stroke="#526c7e" stroke-width="1.5" opacity="1"/>
<rect x="334.40" y="312.76" width="90.00" height="126.00" fill="#cddfee" stroke="#526c7e" stroke-width="1.5" opacity="1"/>
<rect x="98.60" y="558.46" width="86.40" height="306.00" fill="#ead3a8" stroke="#526c7e" stroke-width="1.5" opacity="1"/>
<rect x="338.00" y="558.46" width="86.40" height="306.00" fill="#ead3a8" stroke="#526c7e" stroke-width="1.5" opacity="1"/>
<rect x="103.10" y="791.56" width="77.40" height="72.00" fill="#cddfee" stroke="#526c7e" stroke-width="1.5" opacity="1"/>
<rect x="342.50" y="791.56" width="77.40" height="72.00" fill="#cddfee" stroke="#526c7e" stroke-width="1.5" opacity="1"/>
<rect x="207.50" y="156.16" width="108.00" height="392.40" fill="#e1efe8" stroke="#526c7e" stroke-width="1.5" opacity="0.6" stroke-dasharray="7 5"/>
<rect x="98.60" y="154.36" width="14.40" height="712.80" fill="none" stroke="#8454b5" stroke-width="1.5" opacity="1" stroke-dasharray="7 5"/>
<rect x="410.00" y="154.36" width="14.40" height="712.80" fill="none" stroke="#8454b5" stroke-width="1.5" opacity="1" stroke-dasharray="7 5"/>
<rect x="105.80" y="852.76" width="311.40" height="14.40" fill="none" stroke="#8454b5" stroke-width="1.5" opacity="1" stroke-dasharray="7 5"/>
<rect x="99.50" y="553.96" width="324.00" height="315.00" fill="#c9dcf5" stroke="#30609b" stroke-width="1.5" opacity="0.5" stroke-dasharray="7 5"/>
<rect x="340.70" y="174.16" width="86.40" height="126.00" fill="#fcf1c8" stroke="#a48a35" stroke-width="1.5" opacity="1" stroke-dasharray="7 5"/>
<text x="65" y="530" font-size="15" transform="rotate(-90 65 530)">DRIVER</text>
<text x="461" y="470" font-size="15" transform="rotate(90 461 470)">PASSENGER</text>
<circle cx="143.6" cy="298.36" r="13" fill="white" stroke="#173045"/>
<text x="143.6" y="303.36" font-size="15" text-anchor="middle">1</text>
<circle cx="379.40000000000003" cy="375.76" r="13" fill="white" stroke="#173045"/>
<text x="379.40000000000003" y="380.76" font-size="15" text-anchor="middle">2</text>
<circle cx="143.6" cy="497.26" r="13" fill="white" stroke="#173045"/>
<text x="143.6" y="502.26" font-size="15" text-anchor="middle">3</text>
<circle cx="379.40000000000003" cy="497.26" r="13" fill="white" stroke="#173045"/>
<text x="379.40000000000003" y="502.26" font-size="15" text-anchor="middle">4</text>
<circle cx="261.5" cy="711.46" r="13" fill="white" stroke="#173045"/>
<text x="261.5" y="716.46" font-size="15" text-anchor="middle">5</text>
<circle cx="383.9" cy="237.16" r="13" fill="white" stroke="#173045"/>
<text x="383.9" y="242.16" font-size="15" text-anchor="middle">6</text>
<text x="95" y="914" font-size="17" >Rear doors ↓</text>
<text x="95" y="941" font-size="14" >Extents: 1850 × 4064 × 1930 mm</text>
<text x="565" y="144" font-size="18" >DRIVER ELEVATION — front left / rear right</text>
<rect x="565.00" y="170.00" width="589.28" height="279.85" fill="#fff" stroke="#526c7e" stroke-width="1.5" opacity="1"/>
<rect x="572.54" y="377.35" width="232.00" height="72.50" fill="#e7d5b6" stroke="#526c7e" stroke-width="1.5" opacity="1"/>
<rect x="572.54" y="362.85" width="232.00" height="14.50" fill="#e7d5b6" stroke="#526c7e" stroke-width="1.5" opacity="1"/>
<rect x="808.89" y="199.00" width="79.75" height="250.85" fill="#e7d5b6" stroke="#526c7e" stroke-width="1.5" opacity="1"/>
<rect x="898.07" y="341.10" width="246.50" height="5.80" fill="#e7d5b6" stroke="#526c7e" stroke-width="1.5" opacity="1"/>
<rect x="1085.84" y="349.80" width="58.00" height="100.05" fill="#e7d5b6" stroke="#526c7e" stroke-width="1.5" opacity="1"/>
<rect x="566.74" y="172.90" width="307.40" height="47.85" fill="#e7d5b6" stroke="#526c7e" stroke-width="1.5" opacity="1"/>
<rect x="894.44" y="307.75" width="253.75" height="8.70" fill="#b7cee8" stroke="#30609b" stroke-width="1.5" opacity="1"/>
<rect x="894.44" y="206.25" width="253.75" height="8.70" fill="none" stroke="#30609b" stroke-width="1.5" opacity="1" stroke-dasharray="7 5"/>
<rect x="897.34" y="290.35" width="247.95" height="17.40" fill="#b7cee8" stroke="#30609b" stroke-width="1.5" opacity="1"/>
<rect x="897.34" y="188.85" width="247.95" height="17.40" fill="none" stroke="#30609b" stroke-width="1.5" opacity="1" stroke-dasharray="7 5"/>
<rect x="565.00" y="171.45" width="589.28" height="11.60" fill="none" stroke="#8454b5" stroke-width="1.5" opacity="1" stroke-dasharray="7 5"/>
<text x="900" y="245" font-size="14" >Raised bed (dashed)</text>
<text x="900" y="334" font-size="14" >Lowered bed</text>
<text x="580" y="471.84999999999997" font-size="14" >Deck center: 950–1650 mm • same horizontal platform in both views</text>
<text x="565" y="554" font-size="18" >PASSENGER ELEVATION — front left / rear right</text>
<rect x="565.00" y="580.00" width="589.28" height="279.85" fill="#fff" stroke="#526c7e" stroke-width="1.5" opacity="1"/>
<rect x="700.14" y="735.15" width="101.50" height="124.70" fill="#e7d5b6" stroke="#526c7e" stroke-width="1.5" opacity="1"/>
<rect x="697.24" y="727.90" width="107.30" height="5.80" fill="#e7d5b6" stroke="#526c7e" stroke-width="1.5" opacity="1"/>
<rect x="808.89" y="609.00" width="79.75" height="250.85" fill="#e7d5b6" stroke="#526c7e" stroke-width="1.5" opacity="1"/>
<rect x="898.07" y="751.10" width="246.50" height="5.80" fill="#e7d5b6" stroke="#526c7e" stroke-width="1.5" opacity="1"/>
<rect x="1085.84" y="759.80" width="58.00" height="100.05" fill="#e7d5b6" stroke="#526c7e" stroke-width="1.5" opacity="1"/>
<rect x="729.87" y="582.90" width="145.00" height="47.85" fill="#e7d5b6" stroke="#526c7e" stroke-width="1.5" opacity="1"/>
<rect x="566.74" y="584.35" width="156.60" height="23.20" fill="#e7d5b6" stroke="#526c7e" stroke-width="1.5" opacity="1"/>
<rect x="894.44" y="717.75" width="253.75" height="8.70" fill="#b7cee8" stroke="#30609b" stroke-width="1.5" opacity="1"/>
<rect x="894.44" y="616.25" width="253.75" height="8.70" fill="none" stroke="#30609b" stroke-width="1.5" opacity="1" stroke-dasharray="7 5"/>
<rect x="897.34" y="700.35" width="247.95" height="17.40" fill="#b7cee8" stroke="#30609b" stroke-width="1.5" opacity="1"/>
<rect x="897.34" y="598.85" width="247.95" height="17.40" fill="none" stroke="#30609b" stroke-width="1.5" opacity="1" stroke-dasharray="7 5"/>
<rect x="565.00" y="581.45" width="589.28" height="11.60" fill="none" stroke="#8454b5" stroke-width="1.5" opacity="1" stroke-dasharray="7 5"/>
<text x="900" y="655" font-size="14" >Raised bed (dashed)</text>
<text x="900" y="744" font-size="14" >Lowered bed</text>
<text x="580" y="881.8499999999999" font-size="14" >Deck center: 950–1650 mm • same horizontal platform in both views</text>
<text x="565" y="930" font-size="15" >1 Battery bench / lounge   2 Kitchen   3 Wardrobe   4 Pantry</text>
<text x="565" y="958" font-size="15" >5 Single rear lift bed over paired desks   6 Sliding-door entry</text>
<text x="565" y="986" font-size="14" >Purple dashed: upper wiring intent; cables/routing are still S5 work.</text>
<text x="42" y="1020" font-size="14" >AI render zone lengths, voltage labels and structural details are not verified specifications.</text>
</svg>
