<svg xmlns="http://www.w3.org/2000/svg" width="1240" height="1040" viewBox="0 0 1240 1040">
<rect width="1240" height="1040" fill="#f5f7fa"/>
<style>text{font-family:Arial,sans-serif;fill:#173045} .small{font-size:14px} .label{font-size:16px;font-weight:600}</style>
<text x="42" y="42" font-size="27" >ProMaster 3500 — nominal reference layout</text>
<text x="42" y="72" font-size="16" >Likely 2023 High Roof / 159 extended body • factory maxima, box proxies and provisional furniture</text>
<text x="95" y="117" font-size="19" >TOP — front / cab ↑</text>
<rect x="95.00" y="145.00" width="345.60" height="737.46" fill="#fff" stroke="#526c7e" stroke-width="1.5" opacity="1"/>
<rect x="104.90" y="157.33" width="90.00" height="288.00" fill="#c5dfd1" stroke="#526c7e" stroke-width="1.5" opacity="1"/>
<rect x="104.90" y="450.73" width="90.00" height="99.00" fill="#ead3a8" stroke="#526c7e" stroke-width="1.5" opacity="1"/>
<rect x="340.70" y="450.73" width="90.00" height="99.00" fill="#ead3a8" stroke="#526c7e" stroke-width="1.5" opacity="1"/>
<rect x="340.70" y="315.73" width="90.00" height="126.00" fill="#cddfee" stroke="#526c7e" stroke-width="1.5" opacity="1"/>
<rect x="104.90" y="561.43" width="86.40" height="306.00" fill="#ead3a8" stroke="#526c7e" stroke-width="1.5" opacity="1"/>
<rect x="344.30" y="561.43" width="86.40" height="306.00" fill="#ead3a8" stroke="#526c7e" stroke-width="1.5" opacity="1"/>
<rect x="109.40" y="794.53" width="77.40" height="72.00" fill="#cddfee" stroke="#526c7e" stroke-width="1.5" opacity="1"/>
<rect x="348.80" y="794.53" width="77.40" height="72.00" fill="#cddfee" stroke="#526c7e" stroke-width="1.5" opacity="1"/>
<rect x="213.80" y="159.13" width="108.00" height="392.40" fill="#e1efe8" stroke="#526c7e" stroke-width="1.5" opacity="0.6" stroke-dasharray="7 5"/>
<rect x="104.90" y="157.33" width="14.40" height="712.80" fill="none" stroke="#8454b5" stroke-width="1.5" opacity="1" stroke-dasharray="7 5"/>
<rect x="416.30" y="157.33" width="14.40" height="712.80" fill="none" stroke="#8454b5" stroke-width="1.5" opacity="1" stroke-dasharray="7 5"/>
<rect x="112.10" y="855.73" width="311.40" height="14.40" fill="none" stroke="#8454b5" stroke-width="1.5" opacity="1" stroke-dasharray="7 5"/>
<rect x="105.80" y="556.93" width="324.00" height="315.00" fill="#c9dcf5" stroke="#30609b" stroke-width="1.5" opacity="0.5" stroke-dasharray="7 5"/>
<rect x="95.00" y="605.85" width="44.82" height="160.02" fill="none" stroke="#ad5c37" stroke-width="1.5" opacity="1" stroke-dasharray="7 5"/>
<rect x="395.78" y="605.85" width="44.82" height="160.02" fill="none" stroke="#ad5c37" stroke-width="1.5" opacity="1" stroke-dasharray="7 5"/>
<rect x="347.00" y="177.13" width="86.40" height="126.00" fill="#fcf1c8" stroke="#a48a35" stroke-width="1.5" opacity="1" stroke-dasharray="7 5"/>
<text x="65" y="530" font-size="15" transform="rotate(-90 65 530)">DRIVER</text>
<text x="461" y="470" font-size="15" transform="rotate(90 461 470)">PASSENGER</text>
<circle cx="149.89999999999998" cy="301.33000000000004" r="13" fill="white" stroke="#173045"/>
<text x="149.89999999999998" y="306.33000000000004" font-size="15" text-anchor="middle">1</text>
<circle cx="385.7" cy="378.73" r="13" fill="white" stroke="#173045"/>
<text x="385.7" y="383.73" font-size="15" text-anchor="middle">2</text>
<circle cx="149.89999999999998" cy="500.23" r="13" fill="white" stroke="#173045"/>
<text x="149.89999999999998" y="505.23" font-size="15" text-anchor="middle">3</text>
<circle cx="385.7" cy="500.23" r="13" fill="white" stroke="#173045"/>
<text x="385.7" y="505.23" font-size="15" text-anchor="middle">4</text>
<circle cx="267.79999999999995" cy="714.43" r="13" fill="white" stroke="#173045"/>
<text x="267.79999999999995" y="719.43" font-size="15" text-anchor="middle">5</text>
<circle cx="390.20000000000005" cy="240.13000000000005" r="13" fill="white" stroke="#173045"/>
<text x="390.20000000000005" y="245.13000000000005" font-size="15" text-anchor="middle">6</text>
<text x="95" y="914" font-size="17" >Rear doors ↓</text>
<text x="95" y="941" font-size="14" >Extents: 1920 × 4097 × 1959 mm</text>
<text x="95" y="969" font-size="14" >Wheel-well gap: 1422 mm nominal</text>
<text x="95" y="994" font-size="14" >Width at bed/roof height: unverified</text>
<text x="565" y="144" font-size="18" >DRIVER ELEVATION — front left / rear right</text>
<rect x="565.00" y="170.00" width="594.07" height="284.06" fill="#fff" stroke="#526c7e" stroke-width="1.5" opacity="1"/>
<rect x="574.93" y="381.56" width="232.00" height="72.50" fill="#e7d5b6" stroke="#526c7e" stroke-width="1.5" opacity="1"/>
<rect x="574.93" y="367.06" width="232.00" height="14.50" fill="#e7d5b6" stroke="#526c7e" stroke-width="1.5" opacity="1"/>
<rect x="811.28" y="203.21" width="79.75" height="250.85" fill="#e7d5b6" stroke="#526c7e" stroke-width="1.5" opacity="1"/>
<rect x="900.46" y="345.31" width="246.50" height="5.80" fill="#e7d5b6" stroke="#526c7e" stroke-width="1.5" opacity="1"/>
<rect x="1088.23" y="354.00" width="58.00" height="100.05" fill="#e7d5b6" stroke="#526c7e" stroke-width="1.5" opacity="1"/>
<rect x="569.13" y="177.10" width="307.40" height="47.85" fill="#e7d5b6" stroke="#526c7e" stroke-width="1.5" opacity="1"/>
<rect x="896.83" y="311.96" width="253.75" height="8.70" fill="#b7cee8" stroke="#30609b" stroke-width="1.5" opacity="1"/>
<rect x="896.83" y="210.46" width="253.75" height="8.70" fill="none" stroke="#30609b" stroke-width="1.5" opacity="1" stroke-dasharray="7 5"/>
<rect x="899.73" y="294.56" width="247.95" height="17.40" fill="#b7cee8" stroke="#30609b" stroke-width="1.5" opacity="1"/>
<rect x="899.73" y="193.06" width="247.95" height="17.40" fill="none" stroke="#30609b" stroke-width="1.5" opacity="1" stroke-dasharray="7 5"/>
<rect x="565.00" y="175.66" width="594.07" height="11.60" fill="none" stroke="#8454b5" stroke-width="1.5" opacity="1" stroke-dasharray="7 5"/>
<text x="900" y="245" font-size="14" >Raised bed (dashed)</text>
<text x="900" y="334" font-size="14" >Lowered bed</text>
<text x="580" y="476.055" font-size="14" >Deck center: 950–1650 mm • same horizontal platform in both views</text>
<text x="565" y="554" font-size="18" >PASSENGER ELEVATION — front left / rear right</text>
<rect x="565.00" y="580.00" width="594.07" height="284.06" fill="#fff" stroke="#526c7e" stroke-width="1.5" opacity="1"/>
<rect x="702.53" y="739.36" width="101.50" height="124.70" fill="#e7d5b6" stroke="#526c7e" stroke-width="1.5" opacity="1"/>
<rect x="699.63" y="732.11" width="107.30" height="5.80" fill="#e7d5b6" stroke="#526c7e" stroke-width="1.5" opacity="1"/>
<rect x="811.28" y="613.21" width="79.75" height="250.85" fill="#e7d5b6" stroke="#526c7e" stroke-width="1.5" opacity="1"/>
<rect x="900.46" y="755.31" width="246.50" height="5.80" fill="#e7d5b6" stroke="#526c7e" stroke-width="1.5" opacity="1"/>
<rect x="1088.23" y="764.00" width="58.00" height="100.05" fill="#e7d5b6" stroke="#526c7e" stroke-width="1.5" opacity="1"/>
<rect x="732.26" y="587.11" width="145.00" height="47.85" fill="#e7d5b6" stroke="#526c7e" stroke-width="1.5" opacity="1"/>
<rect x="569.13" y="588.55" width="156.60" height="23.20" fill="#e7d5b6" stroke="#526c7e" stroke-width="1.5" opacity="1"/>
<rect x="896.83" y="721.96" width="253.75" height="8.70" fill="#b7cee8" stroke="#30609b" stroke-width="1.5" opacity="1"/>
<rect x="896.83" y="620.46" width="253.75" height="8.70" fill="none" stroke="#30609b" stroke-width="1.5" opacity="1" stroke-dasharray="7 5"/>
<rect x="899.73" y="704.55" width="247.95" height="17.40" fill="#b7cee8" stroke="#30609b" stroke-width="1.5" opacity="1"/>
<rect x="899.73" y="603.06" width="247.95" height="17.40" fill="none" stroke="#30609b" stroke-width="1.5" opacity="1" stroke-dasharray="7 5"/>
<rect x="565.00" y="585.65" width="594.07" height="11.60" fill="none" stroke="#8454b5" stroke-width="1.5" opacity="1" stroke-dasharray="7 5"/>
<text x="900" y="655" font-size="14" >Raised bed (dashed)</text>
<text x="900" y="744" font-size="14" >Lowered bed</text>
<text x="580" y="886.0550000000001" font-size="14" >Deck center: 950–1650 mm • same horizontal platform in both views</text>
<text x="565" y="930" font-size="15" >1 Battery bench / lounge   2 Kitchen   3 Wardrobe   4 Pantry</text>
<text x="565" y="958" font-size="15" >5 Single rear lift bed over paired desks   6 Sliding-door entry</text>
<text x="565" y="986" font-size="14" >Purple dashed: upper wiring intent; cables/routing are still S5 work.</text>
<text x="42" y="1020" font-size="14" >Nominal maxima do not establish local fit; wheel-well boxes combine sources; furniture remains unmeasured.</text>
</svg>
